<svg fill="none" height="20" viewBox="0 0 270 25" width="220" xmlns="http://www.w3.org/2000/svg">
<path d="M254.959 24.0704C254.835 24.2192 254.681 24.2737 254.493 24.2192C254.354 24.1795 254.205 24.1894 254.061 24.1894C252.038 24.1993 250.015 24.2142 247.987 24.1745C247.843 24.1745 247.7 24.1894 247.556 24.1894C247.462 24.1894 247.367 24.1944 247.278 24.1696C247.119 24.1249 247.1 24.0258 247.219 23.9068C247.412 23.7084 247.605 23.5151 247.774 23.287C247.952 23.0391 247.987 22.7515 248.032 22.4688C248.126 21.849 248.215 21.2243 248.245 20.5946C248.265 20.183 248.324 19.7715 248.379 19.3649C248.428 19.0079 248.468 18.6459 248.468 18.284C248.468 14.4214 248.478 10.5588 248.458 6.69618C248.453 5.645 248.404 4.59382 248.255 3.5476C248.151 2.83855 247.967 2.15924 247.774 1.47499C247.714 1.26673 247.566 1.12294 247.422 0.974187C247.318 0.865102 247.134 0.756018 247.194 0.602307C247.253 0.433722 247.467 0.498181 247.61 0.493223C248.572 0.483306 249.529 0.488264 250.491 0.483306C251.751 0.483306 253.01 0.478347 254.269 0.473389C254.488 0.473389 254.701 0.483305 254.919 0.582473C254.869 0.726267 254.765 0.815518 254.666 0.889894C254.136 1.29648 253.952 1.88157 253.818 2.49642C253.635 3.3443 253.531 4.2021 253.55 5.07478C253.575 6.24001 253.407 7.40523 253.436 8.57045C253.451 9.11588 253.436 9.66626 253.436 10.2117C253.436 10.3257 253.436 10.4398 253.397 10.5489C253.357 10.648 253.357 10.7521 253.397 10.8513C253.426 10.9356 253.481 10.9703 253.565 10.9158C253.635 10.8712 253.699 10.8216 253.759 10.7621C254.334 10.172 254.919 9.58692 255.484 8.982C256.332 8.07957 257.23 7.22177 258.082 6.3243C258.757 5.61525 259.446 4.91611 260.11 4.19219C260.507 3.75585 260.899 3.32943 261.335 2.93275C261.499 2.784 261.598 2.56087 261.762 2.40716C262.054 2.12949 262.267 1.78736 262.505 1.46507C262.654 1.26177 262.719 1.05848 262.639 0.800643C262.555 0.518014 262.595 0.483306 262.902 0.488264C263.596 0.488264 264.285 0.503139 264.98 0.508097C265.713 0.508097 266.447 0.508097 267.181 0.508097C267.384 0.508097 267.593 0.498181 267.816 0.59239C267.712 0.736184 267.583 0.81056 267.444 0.860144C266.566 1.1874 265.852 1.76753 265.123 2.32783C264.067 3.14597 263.095 4.05335 262.143 4.98553C261.345 5.764 260.552 6.54247 259.758 7.33085C258.925 8.15891 258.112 9.01175 257.249 9.81005C257.076 9.97368 256.907 10.1373 256.768 10.3356C256.64 10.5191 256.644 10.5439 256.783 10.7125C257.492 11.5604 258.127 12.4678 258.787 13.3503C259.58 14.4065 260.378 15.4626 261.172 16.5188C261.841 17.4113 262.54 18.279 263.214 19.1666C263.73 19.8459 264.28 20.4904 264.851 21.1202C265.198 21.502 265.535 21.8887 265.907 22.2457C266.576 22.8903 267.34 23.3911 268.178 23.7878C268.287 23.8374 268.46 23.8622 268.441 24.0059C268.421 24.1745 268.237 24.1547 268.113 24.1646C267.92 24.1795 267.722 24.1844 267.523 24.1795C265.232 24.1299 262.937 24.1795 260.646 24.1497C260.418 24.1497 260.195 24.1646 259.972 24.2241C259.813 24.2638 259.739 24.1795 259.773 24.0159C259.783 23.9762 259.798 23.9365 259.818 23.9018C260.006 23.5944 259.952 23.2969 259.803 22.9895C259.347 22.0623 258.851 21.1598 258.34 20.2624C257.522 18.8343 256.595 17.4807 255.643 16.1469C255.097 15.3833 254.527 14.6346 253.967 13.8809C253.907 13.7966 253.843 13.7173 253.769 13.6429C253.625 13.5041 253.511 13.5338 253.466 13.7272C253.441 13.8264 253.441 13.9305 253.441 14.0346C253.476 15.7899 253.496 17.5452 253.55 19.3004C253.57 19.95 253.61 20.5995 253.64 21.2491C253.674 21.9135 253.858 22.5482 254.086 23.1729C254.205 23.4952 254.413 23.7481 254.721 23.9068C254.81 23.9514 254.869 24.0407 254.978 24.0605L254.959 24.0704Z" fill="#786554"></path>
<path d="M123.819 16.4594C123.918 16.2611 123.948 16.0826 123.953 15.8991C123.953 15.0711 123.958 14.248 123.963 13.4199C123.973 11.6746 123.948 9.92923 123.903 8.18388C123.873 7.08807 123.839 5.99722 123.814 4.90142C123.804 4.5097 123.72 4.12295 123.655 3.73619C123.566 3.18581 123.482 2.63543 123.348 2.09496C123.254 1.70821 123.115 1.34624 122.857 1.03882C122.802 0.974364 122.763 0.904946 122.718 0.835529C122.659 0.746277 122.614 0.652068 122.674 0.547942C122.733 0.448774 122.837 0.468607 122.926 0.478524C124.082 0.587609 125.237 0.513233 126.392 0.52315C126.561 0.52315 126.744 0.498358 126.898 0.642151C126.844 0.785945 126.754 0.92478 126.625 1.00411C126.179 1.27683 126.045 1.71316 126.006 2.18917C125.911 3.38415 125.678 4.55929 125.594 5.75426C125.564 6.18564 125.564 6.62198 125.564 7.05336C125.564 11.9721 125.564 16.8859 125.569 21.8046C125.569 22.4145 125.569 23.0244 125.559 23.6342C125.559 24.0458 125.44 24.1797 125.039 24.2094C124.677 24.2392 124.315 24.2342 123.963 24.1499C123.685 24.0805 123.447 23.9466 123.234 23.7582C122.733 23.3119 122.272 22.8211 121.826 22.3203C121.469 21.9186 121.117 21.5121 120.75 21.1203C119.753 20.0592 118.766 18.9882 117.76 17.937C116.614 16.7371 115.494 15.5025 114.358 14.2877C113.669 13.5489 112.965 12.82 112.276 12.0812C111.329 11.0697 110.387 10.0582 109.445 9.04664C109.321 8.91276 109.197 8.76896 109.023 8.73921C108.939 8.77888 108.949 8.83342 108.949 8.88301C108.949 11.0945 108.954 13.3059 108.959 15.5124C108.959 16.2958 108.998 17.0792 109.038 17.8627C109.083 18.6858 109.102 19.5138 109.152 20.3369C109.197 21.1699 109.261 21.998 109.504 22.8062C109.613 23.1731 109.782 23.4905 110.069 23.7433C110.159 23.8227 110.258 23.907 110.292 24.0359C110.317 24.1251 110.302 24.2045 110.183 24.2094C110.099 24.2094 110.02 24.2094 109.935 24.2094C108.745 24.2144 107.56 24.1797 106.37 24.2193C106.321 24.2193 106.266 24.2243 106.217 24.2193C106.058 24.1995 106.008 24.0904 106.103 23.9565C106.172 23.8574 106.256 23.7582 106.341 23.6739C106.593 23.421 106.712 23.1037 106.787 22.7715C107.03 21.7054 107.203 20.6295 107.223 19.5287C107.243 18.3833 107.332 17.2379 107.372 16.0975C107.417 14.8083 107.397 13.5142 107.397 12.225C107.397 11.3275 107.412 10.4251 107.392 9.5276C107.352 8.06983 107.382 6.61702 107.337 5.15925C107.312 4.26178 107.218 3.36927 107.025 2.48668C106.906 1.94621 106.703 1.44541 106.296 1.03882C106.167 0.909905 106.058 0.761153 105.924 0.602484C106.043 0.513233 106.167 0.518191 106.286 0.513233C107.124 0.473566 107.957 0.478524 108.795 0.488441C109.088 0.488441 109.335 0.597526 109.539 0.810737C110.094 1.39087 110.659 1.96604 111.19 2.57593C111.686 3.14118 112.201 3.69157 112.707 4.25187C113.972 5.65509 115.271 7.02857 116.555 8.41196C117.165 9.06647 117.73 9.77056 118.33 10.4399C118.98 11.1639 119.629 11.8828 120.303 12.582C121.34 13.6629 122.371 14.7488 123.318 15.9091C123.467 16.0925 123.601 16.2909 123.819 16.4594Z" fill="#786554"></path>
<path d="M154.278 0.632133C154.1 0.76601 153.946 0.885011 153.787 0.994096C153.48 1.19739 153.232 1.45523 153.019 1.75273C152.523 2.44195 152.102 3.17579 151.665 3.89972C151.169 4.71289 150.708 5.54095 150.302 6.39875C149.945 7.14251 149.598 7.89123 149.231 8.63003C148.606 9.89938 147.981 11.1638 147.366 12.4381C146.861 13.4942 146.37 14.5603 145.869 15.6214C145.725 15.9288 145.661 16.2412 145.676 16.5833C145.745 18.2047 145.75 19.8261 145.904 21.4376C145.958 21.983 146.087 22.5135 146.251 23.0391C146.35 23.3614 146.563 23.5895 146.816 23.7978C146.846 23.8226 146.885 23.8474 146.915 23.8721C147.004 23.9366 147.128 23.9961 147.079 24.1349C147.034 24.2688 146.905 24.2143 146.811 24.2143C146.543 24.2143 146.276 24.2143 146.008 24.2143C144.213 24.1994 142.413 24.1845 140.618 24.1697C140.296 24.1697 139.978 24.1796 139.661 24.2143C139.582 24.2242 139.487 24.2589 139.438 24.1697C139.383 24.0754 139.438 24.006 139.512 23.9316C139.735 23.7184 139.864 23.4308 140.082 23.2077C140.162 23.1284 140.182 23.0094 140.211 22.8953C140.37 22.2755 140.459 21.6409 140.509 21.0012C140.593 19.8063 140.668 18.6113 140.717 17.4163C140.727 17.1783 140.747 16.9403 140.767 16.7073C140.816 16.1023 140.687 15.5321 140.425 14.9966C139.954 14.0446 139.532 13.0678 139.016 12.1356C138.957 12.0315 138.942 11.9026 138.902 11.7885C138.768 11.4067 138.585 11.0497 138.407 10.6878C137.519 8.88291 136.612 7.08797 135.655 5.31286C135.268 4.59389 134.931 3.85013 134.479 3.17083C133.934 2.34278 133.344 1.54448 132.506 0.979221C132.397 0.904845 132.293 0.815594 132.199 0.721384C132.119 0.647008 132.129 0.567674 132.248 0.54784C132.382 0.528007 132.516 0.51809 132.65 0.513132C134.222 0.473464 135.788 0.473464 137.36 0.498256C138.268 0.513131 139.175 0.51809 140.087 0.498256C140.539 0.493298 140.623 0.532965 140.444 0.98418C140.241 1.49489 140.35 2.00065 140.494 2.50145C140.578 2.79399 140.677 3.08158 140.792 3.35925C140.891 3.60717 140.945 3.86501 141.03 4.11293C141.307 4.90627 141.58 5.69962 141.912 6.46817C142.224 7.20201 142.562 7.9309 142.904 8.65482C143.261 9.4085 143.598 10.177 143.945 10.9357C144.104 11.2828 144.277 11.6249 144.451 11.9621C144.624 12.3042 144.778 12.6513 144.912 13.0083C144.937 13.0728 144.947 13.162 145.036 13.167C145.12 13.167 145.155 13.0926 145.19 13.0331C145.264 12.9091 145.338 12.7852 145.403 12.6562C145.859 11.6894 146.35 10.7324 146.786 9.75559C147.178 8.88291 147.599 8.02015 148.006 7.15243C148.755 5.54095 149.35 3.86997 149.865 2.16924C149.905 2.04032 149.925 1.90644 149.95 1.77752C150.009 1.47506 149.95 1.20731 149.722 0.98418C149.642 0.904845 149.573 0.810635 149.528 0.706509C149.459 0.552798 149.513 0.473464 149.682 0.468506C149.702 0.468506 149.722 0.468506 149.741 0.468506C150.763 0.587507 151.784 0.483381 152.806 0.513132C153.168 0.523048 153.53 0.523049 153.892 0.532966C154.016 0.532966 154.14 0.528007 154.293 0.632133H154.278Z" fill="#786554"></path>
<path d="M46.7556 17.8724C46.8399 17.9814 46.8299 18.0707 46.8052 18.16C46.5672 18.983 46.4581 19.8359 46.2002 20.654C45.992 21.3036 45.8085 21.9581 45.6598 22.6225C45.5854 22.9448 45.5358 23.2721 45.4713 23.5944C45.3871 24.0158 45.2036 24.1695 44.7772 24.1993C44.7028 24.2042 44.6334 24.1993 44.559 24.1993C40.2402 24.1993 35.9215 24.1993 31.6077 24.1943C31.1416 24.1943 30.6804 24.1596 30.2144 24.1894C30.1945 24.1894 30.1747 24.1894 30.1549 24.1894C30.0359 24.1794 29.8921 24.2142 29.8326 24.0654C29.778 23.9315 29.902 23.8571 29.9764 23.7828C30.4177 23.3316 30.6953 22.8109 30.7201 22.1663C30.735 21.8242 30.7895 21.487 30.8044 21.1499C30.8292 20.4458 30.9383 19.7516 30.9978 19.0525C31.1069 17.8575 31.1317 16.6625 31.1317 15.4626C31.1317 12.428 31.1317 9.38855 31.1118 6.35401C31.1019 5.08466 30.9879 3.82027 30.6904 2.58067C30.6209 2.28812 30.5317 2.00549 30.4474 1.71791C30.3581 1.40057 30.1796 1.13777 29.9615 0.89977C29.8722 0.800603 29.783 0.701434 29.6937 0.602266C29.7879 0.493182 29.897 0.527891 29.9912 0.527891C30.7747 0.517974 31.563 0.513015 32.3465 0.513015C33.8637 0.513015 35.381 0.542765 36.9032 0.508057C37.0272 0.508057 37.1512 0.513015 37.2751 0.527891C37.409 0.542766 37.4239 0.627058 37.3693 0.726226C37.2949 0.865061 37.1859 0.974146 37.0619 1.07331C36.8437 1.24686 36.7148 1.47494 36.6256 1.73278C36.4223 2.33275 36.3033 2.95255 36.2686 3.58226C36.1248 6.13088 36.0702 8.67949 36.0752 11.2281C36.0801 14.5849 36.0752 17.9418 36.0752 21.2986C36.0752 21.6407 36.0603 21.9779 36.0405 22.32C36.0355 22.4242 36.0653 22.4688 36.1446 22.5134C36.2438 22.5729 36.3529 22.5977 36.4669 22.6027C38.604 22.6374 40.6915 22.3795 42.6798 21.5515C43.5772 21.1747 44.435 20.7234 45.1788 20.0789C45.7738 19.5632 46.2548 18.9731 46.5077 18.2195C46.5572 18.0757 46.6366 17.9715 46.7704 17.8773L46.7556 17.8724Z" fill="#786554"></path>
<path d="M71.9441 16.9057C71.8698 15.8346 71.5574 14.838 70.8979 13.9752C70.3674 13.2811 69.7575 12.6662 68.9641 12.2696C68.5972 12.0861 68.2352 11.8828 67.8435 11.7489C67.7642 11.7241 67.6948 11.6795 67.6254 11.6349C67.5361 11.5803 67.5262 11.5159 67.5956 11.4316C67.7196 11.2878 67.8782 11.1886 68.0419 11.1043C68.4385 10.901 68.7955 10.6382 69.1377 10.3556C70.6847 9.09122 71.2152 7.43016 70.9425 5.51622C70.6698 3.59732 69.5244 2.29822 67.7741 1.52471C67.5758 1.43546 67.4022 1.3115 67.2039 1.23216C66.8519 1.09333 66.475 0.999118 66.1131 0.894992C65.9048 0.835491 65.6916 0.761115 65.4734 0.731365C64.4917 0.587571 63.5 0.533028 62.5133 0.508236C61.2935 0.478486 60.0787 0.488403 58.8589 0.488403C57.6193 0.488403 56.3797 0.498319 55.1401 0.503278C54.4807 0.503278 53.8162 0.498319 53.1568 0.503278C53.0378 0.503278 52.884 0.478487 52.8245 0.617322C52.77 0.751198 52.9138 0.815657 52.9931 0.880116C53.2956 1.13299 53.4344 1.45033 53.5088 1.83213C53.6427 2.54118 53.7964 3.24527 53.8906 3.96424C54.0146 4.93609 54.1286 5.90793 54.1286 6.8897C54.1286 10.2862 54.1286 13.6827 54.1286 17.0792C54.1286 17.6693 54.1286 18.2543 54.0741 18.8444C54.0344 19.2857 53.9798 19.727 53.9352 20.1683C53.8708 20.793 53.841 21.4228 53.7418 22.0426C53.6377 22.7169 53.4543 23.3516 52.9683 23.8623C52.9386 23.892 52.9188 23.9268 52.894 23.9615C52.8444 24.0408 52.8791 24.0953 52.9386 24.1499C53.0179 24.2143 53.1121 24.2094 53.2063 24.2094C53.3898 24.2094 53.5782 24.1995 53.7617 24.2044C55.6211 24.2342 57.4805 24.2044 59.3399 24.1995C59.4936 24.1945 59.6473 24.1796 59.806 24.1796C61.4869 24.1697 63.1727 24.1548 64.8536 24.1449C65.5478 24.1449 66.2321 24.0557 66.9114 23.9268C67.6452 23.7879 68.3245 23.5053 68.9592 23.1086C69.5889 22.7119 70.2186 22.3202 70.7095 21.7302C71.3838 20.922 71.7656 19.9898 71.9144 18.9584C72.0086 18.2841 72.0036 17.5949 71.959 16.9156L71.9441 16.9057ZM59.0573 6.41369C59.0573 5.15426 59.0573 3.89482 59.0573 2.63539C59.0573 2.58581 59.0573 2.53126 59.0573 2.48168C59.0672 2.11476 59.082 2.09988 59.449 2.09988C60.1184 2.09988 60.7877 2.11476 61.4571 2.19409C62.3199 2.29822 63.019 2.68993 63.6487 3.25023C64.3826 3.90474 64.9032 4.69808 65.1809 5.64514C65.3445 6.20048 65.3247 6.77069 65.29 7.33595C65.2701 7.63345 65.2106 7.926 65.1412 8.21854C64.933 9.09618 64.4123 9.75565 63.6934 10.2713C63.1926 10.6283 62.6174 10.8019 62.0125 10.8217C61.1993 10.8465 60.3811 10.8465 59.563 10.8515C59.5035 10.8515 59.4391 10.8515 59.3796 10.8465C59.1465 10.8217 59.0771 10.7572 59.0622 10.5143C59.0573 10.4102 59.0622 10.306 59.0622 10.2069C59.0622 8.94743 59.0622 7.688 59.0622 6.42856L59.0573 6.41369ZM67.1295 19.7766C66.8271 20.917 66.1527 21.755 65.1015 22.3004C64.695 22.5136 64.2685 22.5979 63.8223 22.5979C62.3447 22.5979 60.8671 22.5979 59.3944 22.5979C59.0573 22.5979 59.0573 22.5979 59.0573 22.2558C59.0573 20.674 59.0573 19.0973 59.0573 17.5155H59.0672C59.0672 15.9784 59.0672 14.4364 59.0672 12.8993C59.0672 12.4332 59.0771 12.4282 59.5333 12.4282C60.5547 12.4282 61.5761 12.4282 62.5975 12.4481C63.3909 12.4629 64.1495 12.6365 64.8437 13.053C65.4784 13.4348 65.9643 13.9653 66.3312 14.595C66.9907 15.7256 67.2882 16.9602 67.2634 18.2643C67.2535 18.77 67.2535 19.2758 67.1196 19.7716L67.1295 19.7766Z" fill="#786554"></path>
<path d="M241.14 23.8423C240.669 23.6886 240.227 23.4605 239.831 23.1581C239.087 22.5928 238.447 21.9185 237.837 21.2144C237.52 20.8474 237.193 20.4904 236.87 20.1235C236.404 19.588 235.923 19.0624 235.477 18.5021C234.699 17.5253 233.945 16.5287 233.186 15.537C232.829 15.0709 232.467 14.6048 232.12 14.1338C231.882 13.8115 231.952 13.6379 232.343 13.5437C232.552 13.4941 232.77 13.4594 232.983 13.4198C234.302 13.1619 235.542 12.7058 236.637 11.9124C237.857 11.0348 238.536 9.81501 238.809 8.35724C238.933 7.70273 238.898 7.04327 238.819 6.3838C238.67 5.22353 238.269 4.16244 237.609 3.20547C237.019 2.34766 236.161 1.81216 235.259 1.35598C234.327 0.884936 233.31 0.711391 232.289 0.597348C231.357 0.49818 230.415 0.478347 229.473 0.473388C227.891 0.473388 226.314 0.453555 224.732 0.513055C223.721 0.547764 222.709 0.532889 221.698 0.493222C221.45 0.483305 221.202 0.463471 220.954 0.473388C220.706 0.483305 220.666 0.567598 220.78 0.780809C220.815 0.845268 220.85 0.909727 220.895 0.96427C221.271 1.44028 221.445 2.00057 221.584 2.57079C221.723 3.14101 221.782 3.7261 221.856 4.31119C221.956 5.07974 222 5.85325 222 6.62676C222.01 10.5389 222.005 14.4561 222.005 18.3682C222.005 18.5963 221.995 18.8195 221.966 19.0475C221.812 20.183 221.663 21.3185 221.514 22.449C221.46 22.8655 221.356 23.2473 221.038 23.5547C220.939 23.6489 220.855 23.7779 220.766 23.8869C220.666 24.0059 220.716 24.1299 220.865 24.1646C220.914 24.1745 220.969 24.1745 221.018 24.1745C221.648 24.1398 222.278 24.1944 222.908 24.1944C224.455 24.1844 226.007 24.1894 227.554 24.1844C227.782 24.1844 228.01 24.1795 228.233 24.1745C228.312 24.1745 228.372 24.1448 228.406 24.0704C228.446 23.9762 228.372 23.9415 228.312 23.9018C228.278 23.877 228.243 23.8572 228.208 23.8374C227.916 23.6688 227.692 23.4357 227.519 23.1432C227.39 22.925 227.365 22.6821 227.321 22.444C227.241 22.0077 227.122 21.5763 227.102 21.135C227.053 19.9996 227.008 18.8641 226.978 17.7336C226.959 16.9055 226.964 16.0824 226.959 15.2544C226.959 14.9668 226.939 14.6792 226.914 14.3867C226.899 14.1982 226.825 14.0098 226.884 13.7966C227.117 13.866 227.301 13.9602 227.435 14.1734C227.802 14.7585 228.223 15.3089 228.63 15.8692C229.988 17.7584 231.178 19.7516 232.373 21.74C232.586 22.097 232.785 22.454 232.948 22.8358C233.097 23.1779 233.092 23.5151 232.938 23.8572C232.819 24.115 232.889 24.2192 233.176 24.1993C233.444 24.1795 233.712 24.1844 233.98 24.1844C236.335 24.1844 238.69 24.1844 241.045 24.1894C241.219 24.1894 241.363 24.1398 241.502 24.0109C241.388 23.9117 241.264 23.8721 241.14 23.8274V23.8423ZM227.454 12.2297C227.415 12.2297 227.37 12.2297 227.331 12.2198C226.944 12.1653 226.884 12.1157 226.909 11.729C226.998 10.2216 226.954 8.71425 226.969 7.34573C226.969 5.75408 226.969 4.29631 226.969 2.8435C226.969 2.65508 226.969 2.47162 226.929 2.28816C226.904 2.1642 226.944 2.08983 227.088 2.09478C227.995 2.11958 228.902 2.02041 229.805 2.19891C230.772 2.39229 231.55 2.89804 232.224 3.60214C232.81 4.21698 233.137 4.95578 233.395 5.75408C233.672 6.6218 233.811 7.49944 233.737 8.40187C233.652 9.37867 233.35 10.2861 232.715 11.0447C232.081 11.8083 231.218 12.1603 230.246 12.2248C229.319 12.2843 228.387 12.2446 227.459 12.2297H227.454Z" fill="#786554"></path>
<path d="M189.657 3.76088C189.528 3.51296 189.399 3.26008 189.215 3.05183C188.774 2.55103 188.278 2.12461 187.688 1.78248C186.969 1.36597 186.196 1.09326 185.412 0.870133C184.688 0.66188 183.94 0.557754 183.181 0.547837C179.67 0.503212 176.155 0.537921 172.644 0.528004C172.525 0.528004 172.367 0.483378 172.317 0.63213C172.277 0.741215 172.386 0.835425 172.456 0.924676C172.659 1.18251 172.902 1.4106 173.001 1.74281C173.071 1.98081 173.145 2.21882 173.18 2.46178C173.254 2.99233 173.334 3.52288 173.403 4.05343C173.502 4.81206 173.591 5.5707 173.601 6.33429C173.631 8.13915 173.611 9.94896 173.656 11.7538C173.7 13.6331 173.676 15.5123 173.591 17.3915C173.567 17.9469 173.562 18.5072 173.522 19.0625C173.462 19.9054 173.363 20.7484 173.309 21.5913C173.254 22.3945 173.081 23.1433 172.535 23.7631C172.51 23.7928 172.486 23.8275 172.461 23.8622C172.396 23.9465 172.337 24.0259 172.396 24.1399C172.456 24.2539 172.56 24.2093 172.644 24.2143C173.596 24.2143 174.543 24.2093 175.495 24.2093C176.889 24.2093 178.282 24.2093 179.68 24.2192C179.824 24.2192 179.943 24.1796 180.042 24.0556C179.958 23.9366 179.849 23.892 179.755 23.8325C179.467 23.649 179.264 23.4011 179.155 23.0738C178.922 22.3747 178.773 21.6607 178.758 20.9219C178.748 20.436 178.748 19.955 178.723 19.4691C178.659 18.1502 178.629 16.8263 178.589 15.5073C178.575 14.9272 178.575 14.352 178.565 13.7719C178.555 13.1273 178.555 13.1174 179.184 13.1521C180.176 13.2066 181.168 13.1818 182.155 13.1124C182.948 13.0579 183.736 12.9538 184.52 12.8199C186.106 12.5472 187.564 11.9869 188.779 10.9059C189.666 10.1225 190.252 9.16058 190.41 7.9656C190.604 6.488 190.366 5.08477 189.666 3.7708L189.657 3.76088ZM185.313 8.13419C185.154 9.41346 184.554 10.4349 183.429 11.1092C182.958 11.3919 182.417 11.4662 181.882 11.491C181.386 11.5158 180.89 11.496 180.394 11.496V11.5257C179.889 11.5257 179.383 11.5257 178.877 11.5257C178.614 11.5257 178.604 11.5059 178.555 11.2629C178.51 11.0547 178.51 10.8365 178.465 10.6233C178.436 10.4894 178.51 10.3308 178.51 10.1721C178.51 7.69289 178.51 5.21865 178.51 2.73945C178.51 2.61549 178.51 2.49153 178.52 2.36757C178.53 2.19403 178.634 2.10973 178.798 2.09486C178.837 2.09486 178.882 2.08494 178.922 2.0899C179.655 2.10477 180.384 2.05519 181.118 2.13948C181.783 2.21386 182.417 2.36261 182.973 2.75433C183.226 2.93283 183.454 3.14604 183.662 3.36917C184.376 4.12284 184.911 4.9856 185.149 6.00703C185.313 6.70617 185.392 7.41522 185.308 8.12923L185.313 8.13419Z" fill="#786554"></path>
<path d="M23.5402 23.9266C23.4113 23.8224 23.2725 23.7332 23.1386 23.634C22.8461 23.4208 22.5585 23.1977 22.3254 22.925C22.0279 22.5828 21.8296 22.1763 21.6114 21.7845C21.3833 21.373 21.2445 20.9168 21.0164 20.5102C20.8181 20.1532 20.6693 19.7714 20.5007 19.4045C20.2082 18.7698 19.9751 18.1054 19.6727 17.4757C19.3504 16.8014 19.1471 16.0824 18.8149 15.413C18.6612 15.1006 18.5769 14.7486 18.4232 14.4312C18.1802 13.9255 18.0513 13.3751 17.8529 12.8545C17.729 12.5272 17.5753 12.2148 17.4364 11.8975C17.2579 11.486 17.129 11.0546 16.9604 10.643C16.896 10.4844 16.8018 10.3356 16.7621 10.172C16.7076 9.93894 16.6233 9.71581 16.5142 9.50756C16.3307 9.15551 16.2266 8.77371 16.0679 8.41671C15.9291 8.11424 15.8894 7.78203 15.7357 7.49444C15.5919 7.21677 15.4729 6.91927 15.3688 6.63168C15.2349 6.2598 15.0663 5.89784 14.9275 5.521C14.5506 4.49462 14.1094 3.49302 13.7474 2.46167C13.559 1.91625 13.321 1.3857 13.1127 0.850193C13.0334 0.646899 12.8896 0.522939 12.6813 0.503105C12.2599 0.463438 11.8384 0.448563 11.4169 0.513022C11.2236 0.542772 11.1046 0.636982 11.0252 0.815485C10.8219 1.27166 10.6335 1.72783 10.455 2.19392C9.66662 4.20207 8.90303 6.21518 8.07498 8.20845C7.66839 9.19022 7.27668 10.1769 6.9048 11.1736C6.53292 12.1653 6.09658 13.1272 5.73957 14.1238C5.58586 14.5602 5.4024 14.9816 5.2239 15.413C4.83714 16.365 4.46526 17.322 4.06859 18.269C3.89505 18.6855 3.66696 19.0723 3.48846 19.4888C3.04716 20.5003 2.5662 21.497 2.04061 22.4688C1.7431 23.0192 1.41089 23.5299 0.840673 23.8373C0.820839 23.8472 0.805965 23.8572 0.79109 23.872C0.716714 23.9365 0.597712 23.9811 0.632421 24.11C0.672088 24.2588 0.801005 24.2042 0.890256 24.2042C1.80756 24.2042 2.72982 24.2042 3.64713 24.2042C4.18263 24.2042 4.71814 24.1398 5.24869 24.2439C5.32802 24.0852 5.24869 23.9811 5.1644 23.872C4.96606 23.6142 4.87681 23.3266 4.9016 23.0043C4.91648 22.8109 4.92144 22.6126 4.94127 22.4192C5.00573 21.7796 5.12969 21.1548 5.26852 20.5301C5.31811 20.3169 5.42223 20.2326 5.61065 20.1929C5.8437 20.1433 6.0817 20.1284 6.3197 20.1284C9.06666 20.1284 11.8136 20.1334 14.5606 20.1284C14.7887 20.1284 14.8977 20.2127 14.9771 20.4111C15.2151 21.016 15.3985 21.6408 15.5076 22.2853C15.6018 22.8506 15.6217 23.3911 15.2894 23.8968C15.1804 24.0604 15.2498 24.1894 15.4432 24.2042C15.5671 24.2142 15.6911 24.1943 15.815 24.1943C17.6001 24.1943 19.39 24.2042 21.1751 24.2042C21.8246 24.2042 22.4742 24.1993 23.1287 24.1894C23.2626 24.1894 23.4014 24.1894 23.5254 24.1348C23.6394 24.0852 23.6543 24.0059 23.5551 23.9216L23.5402 23.9266ZM14.1143 18.5616C12.8251 18.5616 11.5359 18.5616 10.2418 18.5616C10.2418 18.5616 10.2418 18.5665 10.2418 18.5715C8.99228 18.5715 7.74277 18.5715 6.49325 18.5715C5.94783 18.5715 5.88337 18.4723 6.07674 17.9815C6.36929 17.2427 6.65688 16.5039 6.94446 15.7651C7.57418 14.1635 8.20886 12.5619 8.83857 10.9604C9.14104 10.1918 9.44845 9.42822 9.74596 8.65967C9.82033 8.46629 9.86 8.263 9.92942 8.06962C9.979 7.93574 10.0236 7.75228 10.1724 7.73741C10.336 7.72253 10.3806 7.91095 10.4401 8.03491C10.6781 8.51587 10.812 9.04146 11.0104 9.5373C11.5012 10.7719 11.9971 12.0066 12.488 13.2462C12.9689 14.4511 13.435 15.6659 13.8713 16.8906C14.035 17.3468 14.1788 17.8079 14.3226 18.269C14.3969 18.517 14.3573 18.5616 14.1094 18.5616H14.1143Z" fill="#786554"></path>
<path d="M99.6121 23.7978C98.9625 23.4606 98.5064 22.9449 98.1642 22.3053C97.832 21.6855 97.5395 21.0508 97.2221 20.4211C96.9147 19.8112 96.6123 19.2013 96.3594 18.5716C95.5611 16.6031 94.7776 14.6297 93.9942 12.6513C93.5628 11.5605 93.1364 10.4646 92.7149 9.36388C92.4968 8.79367 92.2092 8.25816 92.0406 7.66315C91.9018 7.16235 91.6836 6.67643 91.4654 6.19547C91.1878 5.58063 90.925 4.95587 90.6622 4.33607C90.4985 3.94931 90.4093 3.53281 90.2308 3.15597C90.1713 3.03697 90.1316 2.90805 90.087 2.77913C89.8837 2.16429 89.6011 1.5792 89.368 0.974276C89.2788 0.736273 89.1102 0.59248 88.8573 0.532979C88.4458 0.43877 88.0392 0.473478 87.6276 0.508187C87.4789 0.523062 87.3648 0.602397 87.2905 0.770982C86.9186 1.63374 86.5517 2.4965 86.2244 3.37414C85.9517 4.09807 85.6393 4.80712 85.3567 5.52608C84.7369 7.08798 84.1369 8.65979 83.5221 10.2266C83.0808 11.3373 82.6147 12.443 82.1833 13.5587C81.4495 15.4528 80.7454 17.3618 79.8826 19.2013C79.3769 20.2773 78.9008 21.3632 78.3505 22.4144C78.0678 22.9499 77.7505 23.4556 77.21 23.768C77.096 23.8325 76.9819 23.9019 76.853 23.9763C76.9175 24.0655 76.977 24.0804 77.0365 24.1002C77.3191 24.1746 77.6117 24.1647 77.8992 24.1796C78.9207 24.2292 79.9421 24.2192 80.9635 24.1697C81.4643 24.1449 81.4891 24.13 81.2858 23.6589C81.1371 23.3119 81.0627 22.9648 81.1073 22.578C81.1916 21.8442 81.4544 21.155 81.5586 20.431C81.5784 20.2823 81.6825 20.2228 81.8114 20.2029C82.0544 20.1633 82.3023 20.1434 82.5502 20.1434C84.0873 20.1434 85.6294 20.1385 87.1665 20.1335C88.3664 20.1335 89.5614 20.1236 90.7613 20.1286C91.1084 20.1286 91.1431 20.1583 91.2473 20.4856C91.52 21.3087 91.7431 22.1417 91.872 23.0044C91.9067 23.2573 91.872 23.4457 91.6935 23.6242C91.6142 23.7036 91.5497 23.8027 91.4902 23.8969C91.4208 24.006 91.4555 24.0953 91.5844 24.1399C91.634 24.1548 91.6836 24.1647 91.7332 24.1697C92.0406 24.1994 92.348 24.2192 92.6604 24.2192C94.4901 24.2192 96.3147 24.2192 98.1444 24.2192C98.6006 24.2192 99.0518 24.2242 99.508 24.2242C99.6369 24.2242 99.7856 24.2044 99.8203 24.0754C99.86 23.9317 99.7162 23.8622 99.6071 23.8077L99.6121 23.7978ZM90.2655 18.5815C89.0061 18.5815 87.7466 18.5815 86.4872 18.5815V18.5716C85.2476 18.5716 84.008 18.5716 82.7684 18.5716C82.6345 18.5716 82.5006 18.5716 82.3717 18.532C82.2726 18.5022 82.2329 18.4477 82.2527 18.3535C82.2775 18.2345 82.3073 18.1155 82.3469 17.9965C82.5106 17.4659 82.7287 16.9502 82.932 16.4346C83.3832 15.2941 83.8245 14.1487 84.2758 13.0083C84.8311 11.61 85.3914 10.2118 85.9566 8.8135C86.0409 8.60029 86.1104 8.38708 86.1649 8.16891C86.2095 8.00032 86.274 7.8367 86.4178 7.7177C86.4872 7.66315 86.5467 7.65819 86.5963 7.74249C86.631 7.80695 86.6707 7.86645 86.6905 7.93586C86.9434 8.84325 87.3748 9.68122 87.702 10.5589C87.9351 11.1836 88.1631 11.8183 88.421 12.4331C88.8375 13.4099 89.1945 14.4066 89.611 15.3784C89.7796 15.7701 89.9085 16.1668 90.0424 16.5684C90.1961 17.0395 90.3548 17.5105 90.5085 17.9766C90.5283 18.0361 90.5481 18.0956 90.563 18.1551C90.687 18.5617 90.682 18.5766 90.2655 18.5766V18.5815Z" fill="#786554"></path>
<path d="M214.394 23.882C214.275 23.7977 214.161 23.7135 214.037 23.6391C213.412 23.2523 212.966 22.7119 212.654 22.0524C212.247 21.1946 211.826 20.3417 211.404 19.4939C210.898 18.4675 210.487 17.3965 210.07 16.3304C209.555 15.0065 209.074 13.6727 208.499 12.3736C208.345 12.0265 208.265 11.6645 208.107 11.3224C207.978 11.0447 207.859 10.7621 207.745 10.4795C207.576 10.0481 207.423 9.60681 207.254 9.17543C206.986 8.49117 206.709 7.81683 206.441 7.13257C205.9 5.75909 205.375 4.38066 204.824 3.01214C204.666 2.61547 204.482 2.23367 204.353 1.82708C204.254 1.50975 204.13 1.20728 204.001 0.904822C203.902 0.681694 203.734 0.547816 203.486 0.513108C203.094 0.458565 202.707 0.463524 202.315 0.532942C202.112 0.567651 201.978 0.66186 201.899 0.855237C201.74 1.22712 201.562 1.58412 201.413 1.96096C200.982 3.04685 200.57 4.13274 200.144 5.21863C199.216 7.56891 198.269 9.91423 197.357 12.2695C196.881 13.4892 196.395 14.709 195.909 15.9238C195.041 18.1005 194.089 20.2376 193.008 22.3201C192.721 22.8804 192.374 23.3812 191.848 23.7482C191.739 23.8225 191.541 23.9068 191.605 24.0605C191.66 24.1944 191.858 24.1647 192.002 24.1647C193.326 24.1845 194.645 24.1944 195.969 24.1647C196.172 24.1647 196.202 24.1052 196.078 23.9217C195.939 23.7135 195.825 23.5052 195.77 23.2523C195.686 22.8457 195.77 22.4491 195.82 22.0524C195.884 21.5417 196.083 21.0558 196.152 20.545C196.182 20.3417 196.286 20.2525 196.46 20.2128C196.653 20.1682 196.846 20.1484 197.045 20.1484C198.408 20.1484 199.772 20.1484 201.135 20.1484C202.548 20.1484 203.967 20.1484 205.38 20.1385C205.618 20.1385 205.737 20.2227 205.826 20.426C206.099 21.0657 206.282 21.7251 206.411 22.4094C206.51 22.9449 206.495 23.4308 206.173 23.887C206.064 24.0407 206.123 24.1498 206.302 24.1895C206.361 24.2043 206.426 24.1994 206.485 24.1994C208.821 24.1994 211.151 24.2043 213.487 24.2043C213.754 24.2043 214.022 24.1895 214.29 24.1795C214.374 24.1795 214.463 24.1746 214.498 24.0804C214.538 23.9812 214.459 23.9316 214.389 23.882H214.394ZM204.874 18.5716C204.76 18.5766 204.646 18.5815 204.532 18.5815C202.177 18.5815 199.826 18.5815 197.471 18.5815C197.327 18.5815 197.183 18.5914 197.04 18.5468C196.851 18.4923 196.817 18.4377 196.861 18.2592C196.896 18.1204 196.945 17.9815 196.995 17.8477C197.674 16.1321 198.373 14.4214 199.033 12.7009C199.464 11.5753 199.955 10.4696 200.357 9.3341C200.496 8.93743 200.679 8.55563 200.813 8.14904C200.868 7.98541 200.942 7.82179 201.081 7.67799C201.215 7.74245 201.259 7.84658 201.304 7.95071C201.869 9.35889 202.444 10.7572 202.98 12.1753C203.223 12.8199 203.496 13.4496 203.748 14.0892C204.001 14.7189 204.219 15.3586 204.452 15.9982C204.715 16.7023 204.904 17.4312 205.152 18.1402C205.281 18.5022 205.246 18.5518 204.869 18.5766L204.874 18.5716Z" fill="#786554"></path>
</svg>