<?xml version="1.0" encoding="utf-8"?>
<!-- Generator: Adobe Illustrator 25.4.1, SVG Export Plug-In . SVG Version: 6.00 Build 0)  -->
<svg version="1.1" id="Layer_1" xmlns="http://www.w3.org/2000/svg" xmlns:xlink="http://www.w3.org/1999/xlink" x="0px" y="0px"
	 viewBox="0 0 178 24.7" style="enable-background:new 0 0 178 24.7;" xml:space="preserve">
<style type="text/css">
	.st0{fill:#323433;}
</style>
<path class="st0" d="M12,24.7c-11,0-12-8-12-12C0,4.5,4.5,0,12.2,0c3.3,0,5.1,0.6,5.7,0.9c0.2,0.1,0.3,0.2,0.2,0.4
	c0,0.3-0.1,1-0.1,2c0,0.4,0,0.8,0,1.1c0,0.4-0.4,0.5-0.7,0.3c-1.2-1.5-2.5-2.3-5.2-2.3c-3.5,0-8.6,1.5-8.6,10.2
	c0,5.4,1.7,9.9,8.5,9.9c2.8,0,4.1-0.9,5.3-2.4c0.2-0.3,0.7-0.1,0.7,0.3s0,0.9,0,1.3c0,0.8,0,1.5,0.1,1.8c0,0.2-0.1,0.3-0.3,0.4
	C17.2,24,15.1,24.7,12,24.7z M56.7,24.7c-3.2,0-5-0.7-5.7-0.9c-0.2-0.1-0.2-0.2-0.2-0.4c0-0.3,0.1-0.9,0.1-1.8c0-0.5,0-1,0-1.4
	c0-0.3,0.4-0.5,0.7-0.3c1.2,1.5,2.6,2.5,5.1,2.5c2.1,0,4.9-0.3,4.9-3.6c0-2.1-1.2-3.1-2.6-4l-3.1-2c-2.3-1.5-5-3.1-5-6.8
	c0-3.2,2.1-6,7.6-6c2.7,0,4.5,0.6,5.2,0.9C63.9,0.9,64,1.1,64,1.3c0,0.3-0.1,1-0.1,1.9c0,0.4,0,0.9,0,1.2c0,0.3-0.4,0.5-0.7,0.3
	c-1.2-1.5-2.6-2.3-4.8-2.3c-1.3,0-4.3,0.2-4.3,3.3c0,2.1,1.4,2.9,3.3,4.1l2.4,1.5c2.7,1.7,5,3.1,5,7C64.9,23,61.5,24.7,56.7,24.7z
	 M45.5,23.9c-0.9-1.3-1.6-3.4-2.8-7.5L38,2.2C38,2,37.9,1.8,37.9,1.5l0,0l-0.2-1.1c0-0.2-0.2-0.3-0.4-0.3H37l0,0h-4.5l0,0h-0.3
	c-0.2,0-0.3,0.1-0.4,0.3l-0.2,1.1l0,0c-0.1,0.2-0.1,0.4-0.2,0.6l-5,14.2c-1.3,4-1.9,6.2-2.9,7.5c-0.2,0.3,0,0.6,0.3,0.6
	c0.5,0,1.2,0,2.1,0c0.9,0,1.6,0,2.1,0c0.3,0,0.5-0.3,0.3-0.6c-0.3-0.3-0.5-0.9-0.5-1.5c0-1.2,0.6-3.3,1.3-5.7l0.1-0.2
	c1.1-1.5,2.9-2.4,4.9-2.4c2,0,3.8,0.9,4.9,2.4l0.1,0.2c0.7,2.4,1.3,4.5,1.3,5.7c0,0.7-0.2,1.2-0.5,1.5c-0.2,0.3,0,0.6,0.3,0.6
	c0.6,0,1.4,0,2.3,0c1.1,0,1.9,0,2.5,0C45.5,24.5,45.7,24.2,45.5,23.9z M34.3,11.8c-1.3,0-2.5,0.3-3.6,0.8l2.9-8.7
	c0.2-0.5,0.3-0.9,0.4-1.3c0.1-0.4,0.6-0.4,0.7,0C34.8,3,34.9,3.4,35,3.9l2.9,8.7C36.8,12.1,35.6,11.8,34.3,11.8z M88,2
	c0-0.7,0-1.1,0-1.4c0-0.2-0.2-0.4-0.4-0.4H70.8c-0.2,0-0.4,0.2-0.4,0.4c0,0.3,0,0.8,0,1.4c0,0.5,0,0.9,0,1.2s0.3,0.5,0.6,0.3
	c0.2-0.1,0.3-0.2,0.6-0.4c0.8-0.5,2.1-0.8,3.7-0.8h2.2v9.8c0,10.2-0.2,10.4-0.9,11.7L76.6,24l0,0.1l0,0l0,0l0,0
	c-0.1,0.2,0,0.4,0.3,0.4h2.4h2.4c0.2,0,0.3-0.2,0.3-0.4l-0.1-0.1l0,0c-0.7-1.4-0.9-1.5-0.9-11.4V2.3h2.2c1.6,0,2.9,0.3,3.7,0.8
	c0.2,0.1,0.4,0.3,0.6,0.4c0.3,0.2,0.6,0,0.6-0.3C88,2.9,88,2.5,88,2z M109.2,20.6c-0.9,1.1-2,1.7-5.2,1.7h-4.3v-10
	c0-6.7,0.1-8.9,0.3-10.1l0.6-1.3c0.1-0.3-0.1-0.5-0.3-0.5l-1.4,0l0,0h-1.8l0,0l-1.4,0c-0.3,0-0.4,0.3-0.3,0.5l0.6,1.4l0,0
	c0.3,1.2,0.3,3.4,0.3,10.1c0,7.7-0.1,9.7-0.4,10.8l-0.4,1c-0.1,0.3,0.1,0.5,0.3,0.5h0.4l0,0c0.4,0,0.9,0,1.5,0h11.4
	c0.2,0,0.3-0.2,0.4-0.3l0-0.7c0.1-1.1,0.2-1.9,0.2-2.6C110,20.5,109.5,20.3,109.2,20.6z M177.6,0.3c-0.5,0-1.1,0-2,0
	c-0.9,0-1.6,0-2.2,0c-0.3,0-0.5,0.3-0.3,0.6c0.2,0.3,0.3,0.7,0.3,1c0,0.9-0.1,1.3-1.7,4.5l-2.5,5l-2.6-5c-1.7-3.2-1.8-3.6-1.8-4.6
	c0-0.3,0.1-0.7,0.3-1c0.2-0.3,0-0.6-0.3-0.6c-0.5,0-1.3,0-2.5,0c-1.1,0-1.9,0-2.5,0c-0.3,0-0.5,0.4-0.3,0.6c0.7,0.7,1.4,1.9,3.7,6.2
	l4,7.4c0,5.1-0.1,7-0.3,8.2l-0.6,1.3c-0.1,0.3,0.1,0.5,0.3,0.5l1.6,0c0.2,0,0.4,0,0.7,0c0.2,0,0.4,0,0.6,0l0,0l1.6,0
	c0.3,0,0.4-0.3,0.3-0.5l-0.6-1.3c-0.3-1.2-0.3-3.3-0.3-9l3.6-6.5c2.3-4.1,3.1-5.5,3.8-6.2C178.1,0.6,178,0.2,177.6,0.3z M130.6,20.6
	c-0.9,1.1-2,1.7-5.2,1.7h-4.1v-8.9h3.7c1.6,0,2.9,0.2,3.7,0.6c0.2,0.1,0.4,0.3,0.6,0.4c0.3,0.2,0.6,0,0.6-0.3c0-0.4,0-1,0-1.7
	c0-0.7,0-1.3,0-1.8c0-0.3-0.3-0.5-0.6-0.3c-0.2,0.1-0.3,0.2-0.6,0.3c-0.8,0.5-2.1,0.6-3.7,0.6h-3.7V2.4h4.5c1.6,0,2.9,0.3,3.7,0.8
	c0.2,0.1,0.4,0.3,0.5,0.3c0.3,0.2,0.6,0,0.6-0.3c0-0.3,0-0.7,0-1.2c0-0.6,0-1.1,0-1.4c0-0.2-0.2-0.4-0.4-0.4h-11c-0.2,0-0.4,0-0.6,0
	l0,0l-1.4,0c-0.3,0-0.4,0.3-0.3,0.5l0.4,1c0.3,1.1,0.4,3,0.4,10.5c0,7.8-0.1,9.8-0.4,10.8l-0.4,0.9c-0.1,0.3,0.1,0.5,0.3,0.5h0.4
	l0,0c0.4,0,0.9,0,1.5,0h11.3c0.2,0,0.3-0.2,0.4-0.3l0-0.7c0.1-1.1,0.2-1.9,0.2-2.6C131.3,20.5,130.8,20.3,130.6,20.6z M156.5,23.8
	c-1-0.7-1.7-2-2.7-3.6l-1.6-2.7c-1.8-2.9-2.8-4.5-5.7-4.9c6,0.1,7.5-3.7,7.5-6.4c0-5.8-5.1-6.1-9.1-6.1c-1.2,0-2.9,0.1-3.9,0.1
	c-0.1,0-0.2,0-0.3,0l-1.5-0.1c-0.3,0-0.4,0.3-0.3,0.5l0.6,1.3c0.3,1.2,0.3,3.4,0.3,10.1c0,7.1-0.1,9.4-0.4,10.5l-0.5,1.2
	c-0.1,0.3,0.1,0.5,0.3,0.5h0.4l0,0c0,0,0,0,0,0h0.5c0.4,0,0.8,0,1.3,0c0.8,0,1.3,0,1.8,0l0,0h0.4c0.3,0,0.4-0.3,0.3-0.5l-0.6-1.3
	c-0.3-1.2-0.3-3.3-0.3-9.3c0,0,0.3,0,0.6,0c1.8,0,2.2,0.7,4.3,3.9l2.4,3.8c1.6,2.5,2.4,3.5,4.8,3.5c0.5,0,0.9,0,1.2-0.1
	C156.7,24.5,156.8,24,156.5,23.8z M145,11.3c-1.3,0-2-0.1-2-0.1v-9c0,0,0.8-0.1,1.7-0.1c3.1,0,5.5,0.4,5.5,4.5
	c0,2.8-1.5,4.2-3.2,4.5C146.5,11.3,145.4,11.3,145,11.3z"/>
</svg>
