<svg class="hidden xl:block site-logo--large" viewBox="0 0 300 20" xmlns="http://www.w3.org/2000/svg"><title>Lulu &amp; Georgia</title><path d="M183.36 9.33c0-4.78 3.75-8.8 8.64-9.26 2.96-.26 5.72.3 7.96 2.29 2.91 2.54 3.74 5.8 2.8 9.41-.88 3.56-3.38 5.7-6.96 6.62-2.24.56-4.48.4-6.61-.46a9.05 9.05 0 01-5.83-8.6zm10-6.46a6.27 6.27 0 00-6.46 6.26c-.05 3.76 2.65 6.66 6.2 6.71 3.63.05 6.5-2.7 6.5-6.26.1-3.86-2.5-6.66-6.25-6.71zM150.74.57c-2.97-.76-5.88-.9-8.74.46-6.24 2.96-7.34 11.2-2.03 15.42a10.38 10.38 0 006.19 2.2c2.7.14 5.2-.42 7.54-1.79a.75.75 0 00.42-.71V9.28c0-.15 0-.26-.05-.4h-8.22v2.79h5.1v3c0 .1-.16.3-.32.36-1.71.56-3.48.81-5.25.5a6.17 6.17 0 01-5.2-5.29c-.42-2.7.88-5.29 3.28-6.46 1.5-.71 3.06-.96 4.68-.71 1.25.2 2.5.61 3.85.97.3-.77.67-1.63 1.09-2.65-.83-.25-1.56-.61-2.34-.81zm97.48 14.15c0 .1-.16.3-.26.36-1.87.61-3.8.86-5.77.4a6.15 6.15 0 01-4.74-5.39c-.26-3 1.15-5.4 3.75-6.46a8.04 8.04 0 014.89-.4c1.04.2 2.08.6 3.17.9.36-.86.73-1.72 1.04-2.59-.1-.05-.1-.1-.16-.15-3.48-1.53-7.07-1.98-10.66-.4-6.6 2.95-7.6 11.75-1.77 15.82 3.85 2.7 9.63 2.4 13.42 0 .16-.1.26-.36.26-.56V9.33c0-.15 0-.26-.05-.4h-8.22v2.8h5.1c.05 1.06.05 2.03 0 3zM226.8 18.4h-3.54c-.16 0-.36-.16-.47-.3-1.14-1.54-2.23-3.06-3.38-4.59-.2-.3-.47-.4-.88-.4-1.04.05-2.03 0-3.12 0v5.29h-3.23V.37c.1 0 .26-.05.37-.05 1.97 0 3.95-.05 5.93 0 .88.05 1.82.15 2.65.4a5.73 5.73 0 014.26 5.45 7.07 7.07 0 01-.46 3.1 5.2 5.2 0 01-2.92 2.9l4.79 6.22zM215.46 3.32v7.03c1.25-.05 2.5 0 3.7-.2 1.81-.26 2.8-1.53 2.75-3.52 0-1.88-.99-3.05-2.81-3.3-1.2-.1-2.4 0-3.64 0zm-183.89.56c0 2.65 0 5.25-.05 7.9-.05 2.03-1.2 3.5-2.96 3.86a9.3 9.3 0 01-2.66.05 3.21 3.21 0 01-2.75-2.24 5.19 5.19 0 01-.37-1.78c-.05-3.56-.05-7.12-.05-10.69V.32h-3.28v10.54c0 .76.06 1.47.21 2.23a6.27 6.27 0 005 5.35c1.35.3 2.7.3 4.1.15 2.92-.36 5-2.14 5.68-4.94.2-.96.3-1.93.36-2.9.05-3.3 0-6.61 0-9.92v-.5h-3.23v3.55zM64.14.73V10.9c0 .76.05 1.47.2 2.24a6.27 6.27 0 005 5.34c1.35.3 2.7.3 4.06.15 2.86-.35 5-2.03 5.67-4.78.26-1.02.36-2.09.41-3.1.06-3.26 0-6.52 0-9.83V.37h-3.27V8.31c0 1.17 0 2.34-.06 3.51-.1 1.99-1.2 3.46-3.01 3.82-.84.15-1.77.15-2.6.05-1.46-.15-2.4-1.02-2.86-2.4a5.66 5.66 0 01-.32-1.62c-.05-3.56-.05-7.12-.05-10.69v-.6h-3.28c.1.1.1.25.1.35zM174.57 11.1v-2.8h-7.85V3.22h8.68V.37h-11.9V18.4h11.9v-2.9h-8.68V11.1h7.85zM290 18.39h-3.23c-.15 0-.3-.2-.36-.3-.47-.98-.88-1.94-1.3-2.9-.1-.31-.26-.42-.62-.42h-7.13c-.31 0-.47.1-.57.36-.47 1.07-.94 2.14-1.4 3.26h-3.34c.06-.16.06-.26.1-.36 2.76-5.85 5.57-11.7 8.33-17.5.1-.26.26-.46.52-.36.2.05.42.15.52.3 2.81 5.86 5.57 11.76 8.38 17.61 0 .05 0 .15.1.3zm-9.05-12.42c-.99 2.14-1.87 4.17-2.81 6.2h5.62c-.94-2.08-1.87-4.06-2.81-6.2zM48.06.37h-3.22V18.4h11.91v-2.9h-8.74c.05-5.1.05-10.13.05-15.12zm-48 17.97h11.9v-2.9H3.23V.32H0c.05 6.06.05 12.06.05 18.02zm260.7 0h3.18V.32h-3.17v18.02zM117.2 13.3V3.78c1.77.1 3.48.05 5.2.3 2.34.41 3.8 2.45 3.7 4.69a4.69 4.69 0 01-4.17 4.48c-1.56.2-3.12.05-4.73.05zm1.71-1.48c.84 0 1.62.05 2.4 0a3.15 3.15 0 002.9-2.9 3.06 3.06 0 00-2.44-3.36c-.93-.2-1.92-.1-2.9-.2.04 2.19.04 4.33.04 6.46zM105.86 7.6c.05 0 .1-.05.1-.05.1.15.2.25.31.4 1.77 1.79 3.6 3.57 5.36 5.3.16.15.42.25.68.4V3.88h-1.67v5.96c-.05.05-.1.05-.15.1l-.32-.46c-1.76-1.83-3.48-3.61-5.25-5.4-.26-.25-.47-.4-.78-.25v9.62h1.72V7.6zm-5.3 5.8h-1.57c-.1 0-.26-.1-.36-.2-.06-.05-.06-.1-.1-.2-.27-1.23-1.05-1.69-2.3-1.48-.73.1-1.45.05-2.18 0-.26 0-.47.05-.57.35 0 .05-.06.1-.06.16-.67 1.47-.67 1.47-2.39 1.37.05-.15.1-.3.16-.4 1.4-2.96 2.75-5.86 4.16-8.81.05-.15.26-.25.42-.4.1.15.26.25.36.4l4.16 8.8c.1.05.16.2.26.41zm-3.29-3.26c-.46-1.12-.93-2.13-1.45-3.3-.52 1.17-1 2.23-1.46 3.3h2.91z" fill="#000" fill-rule="nonzero"></path></svg>