<svg version="1.1" id="Layer_1" xmlns="http://www.w3.org/2000/svg" xmlns:xlink="http://www.w3.org/1999/xlink" x="0px" y="0px" viewBox="0 0 292.7 52.5" style="enable-background:new 0 0 292.7 52.5;" xml:space="preserve">
 <style type="text/css">
  .st0{fill-rule:evenodd;clip-rule:evenodd;fill:#565458;}
 </style>
 <g>
  <desc>
   West Elm offers modern furniture and home decor featuring inspiring designs and colors.
  </desc>
  <g>
   <g>
    <g>
     <path class="st0" d="M283.1,14.8c-5.3,0-8.2,2.7-10.1,4.7c-0.8,0.9-1.1,1.3-1.5,1.3c-0.4,0-0.5-0.5-0.9-1.2
					c-0.4-0.7-2.2-4.7-7.6-4.7c-5.3,0-8.4,3.1-10.2,4.8c-0.4,0.4-1.1,0.6-1.1-0.2v-3c0-1.2-0.3-1.2-2.3-1.2c-1.9,0-2.5,0-2.5,1.2
					v34.8c0,0.9,0.6,0.9,2.5,0.9c1.5,0,2.5,0,2.5-0.9V34c0-8.5,4-14.1,9.2-14.1c5.2,0,6.2,4.7,6.2,8.3v23.3c0,1,0.9,0.7,2.4,0.7
					c1.5,0,2.5,0.3,2.5-0.7V34c0-8.5,3.9-14.1,9.9-14.1c4.5,0,5.8,3.7,5.8,7.3v23.9c0,1.2,0.4,1.2,2.3,1.2s2.6-0.1,2.6-1.2V26
					C292.7,18.9,288.6,14.8,283.1,14.8">
     </path>
     <path class="st0" d="M231.3,1.3c0-0.8-0.1-1.3-1-1.3l-8.3,0.1c-0.6,0-0.5,0.5-0.5,2.2c0,1.3,0,2.1,0.5,2.1
					c3.2,0,4.2,1.4,4.2,3.5v43c0,1.1-0.2,1.2,2.4,1.2c2.7,0,2.6,0.1,2.6-1.2V1.3z">
     </path>
     <path class="st0" d="M68.8,17.9c3.4,0,8,2.8,8,7.2c0,3.1-0.3,3.5-1.1,3.5c-0.3,0-14.2,0-15.6,0c-0.9,0-1-0.5-1-1.3
					C59.1,23.5,62.6,17.9,68.8,17.9 M59.9,33.1L78.1,33c1.5,0,2.6-0.5,3-1.7c0.5-1.7,0.9-3.2,0.7-6.6c-0.6-9-8.1-11.6-12.8-11.6
					c-10.2,0-16,8.6-16,20.1c0,6.5,1.2,9.8,3.9,13.7c2.7,4,7.8,5.5,11.9,5.5c4.1,0,11-2.5,12.5-4.2c0.3-0.3,0.3-1.3,0.1-2.4
					c-0.2-0.9-0.6-2.2-1.2-2c-1.1,0.4-4.5,3.4-10.7,3.4c-10.6,0-10.7-10.1-10.8-12.2C58.6,33.1,58.9,33.1,59.9,33.1">
     </path>
     <path class="st0" d="M152,45.7c-1.1,0.4-2.1,1.2-5.1,1.2c-5.4,0-6.6-4.2-6.6-7.8V19.7c0-0.8,0.3-1,1.3-1l10.4,0
					c0.4,0,0.3-0.7,0.3-2.5c0-1.8,0.1-2.6-0.6-2.6l-10.2,0c-0.9,0-1.3-0.3-1.3-1.6V3c0-1.4-0.1-1.4-2.5-0.7
					c-2.6,0.8-2.6,0.8-2.6,1.8v8.1c0,1-0.2,1.6-1.3,1.6l-3.9,0c-0.9,0-0.7,1.1-0.6,2.5c0,1.5,0,2.5,0.6,2.5l4,0
					c0.8,0.1,1.2,0.1,1.2,0.9V36c0,9.3,1.3,11.4,3.4,13.5c2.1,2.2,5,2.8,7,2.8c2.1,0,5-0.8,7-1.7c1-0.4,1.1-0.8,0.7-2.9
					C152.9,45.5,152.7,45.5,152,45.7">
     </path>
     <path class="st0" d="M109.7,30.6c-3.3-1.5-7.9-2.5-7.9-7c0-3.9,3.6-5.7,6.2-5.7c1.6,0,3.8,0.5,5.9,1.4c2.2,0.9,2.1,0.1,3-1.3
					c0.6-1,0.8-2,0.5-2.3c-1.4-1.2-5.1-2.7-9.4-2.7c-7.8,0-11.9,5-11.9,10.6c0,5.4,4.6,8.8,8.8,10.8c4.4,2,8.9,3.5,8.9,7.2
					c0,2.5-2.1,6-6.6,6c-3.8,0-7.6-2.2-8.9-2.9c-0.7-0.4-1,0.4-1.6,1.6c-0.7,1.5-1.2,2.6-0.7,3c2.7,1.6,7.3,3.3,11.1,3.2
					c7,0,12.5-4.3,12.4-11.1C119.5,34.3,113,32.2,109.7,30.6">
     </path>
     <path class="st0" d="M197.9,17.9c3.4,0,8,2.8,8,7.2c0,3.1-0.3,3.5-1.1,3.5c-0.3,0-14.2,0-15.6,0c-0.9,0-1-0.5-1-1.3
					C188.3,23.5,191.8,17.9,197.9,17.9 M189,33.1l18.2-0.1c1.5,0,2.6-0.5,3-1.7c0.5-1.7,0.9-3.2,0.7-6.6c-0.6-9-8.1-11.6-12.8-11.6
					c-10.2,0-16,8.6-16,20.1c0,6.5,1.3,9.8,3.9,13.7c2.7,4,7.8,5.5,11.9,5.5c4.1,0,11-2.5,12.5-4.2c0.3-0.3,0.3-1.3,0.1-2.4
					c-0.2-0.9-0.6-2.2-1.2-2c-1.1,0.4-4.5,3.4-10.7,3.4c-10.6,0-10.7-10.1-10.8-12.2C187.7,33.1,188,33.1,189,33.1">
     </path>
     <path class="st0" d="M41.3,14.3c-2,0-2.6-0.2-2.9,0.7c-0.1,0.3-5.3,26.7-5.3,26.7c-0.2,0.8-0.4,1.1-0.8,1.1
					c-0.5,0-0.6-0.2-0.8-0.9l-7.4-26.6c-0.2-0.8-0.5-1.1-2.3-1.1s-2.2,0.2-2.4,1.1l-7.2,26.6c-0.2,0.7-0.4,0.9-0.8,0.9
					c-0.4,0-0.6-0.8-0.8-1.6L5.1,14.8c-0.3-1-0.8-0.7-2.7-0.7c-1.8,0-2.4,0.1-2.4,1.1c0,0.5,7.9,33.9,8.2,35.3c0.4,1.5,0.9,2,3,2
					c2.5,0,2.8-1.1,3.1-2l6.7-24c0.2-0.7,0.3-1,0.7-1c0.5,0,0.5,0.4,0.7,1l6.7,24c0.4,0.9,0.7,2,3.1,2c2.1,0,2.6-0.5,3-2
					c0.3-1.4,8-35.1,8-35.5C43.5,14.1,42.7,14.3,41.3,14.3">
     </path>
    </g>
   </g>
  </g>
 </g>
</svg>